G75*
%MOIN*%
%OFA0B0*%
%FSLAX24Y24*%
%IPPOS*%
%LPD*%
%AMOC8*
5,1,8,0,0,1.08239X$1,22.5*
%
%ADD10R,0.0740X0.0740*%
%ADD11C,0.0740*%
%ADD12C,0.0100*%
%ADD13C,0.0350*%
D10*
X000650Y003920D03*
D11*
X000650Y002920D03*
X000650Y001920D03*
X000650Y000920D03*
X005650Y000920D03*
X005650Y001920D03*
X005650Y002920D03*
X005650Y003920D03*
D12*
X001074Y000637D02*
X000992Y000555D01*
X005308Y000555D01*
X005226Y000637D01*
X005150Y000821D01*
X005150Y001019D01*
X005226Y001203D01*
X005367Y001344D01*
X005551Y001420D01*
X005749Y001420D01*
X005933Y001344D01*
X006015Y001262D01*
X006015Y001578D01*
X005933Y001496D01*
X005749Y001420D01*
X005551Y001420D01*
X005367Y001496D01*
X005274Y001589D01*
X004475Y000790D01*
X003951Y000790D01*
X003873Y000711D01*
X003761Y000665D01*
X003639Y000665D01*
X003527Y000711D01*
X003441Y000797D01*
X003395Y000909D01*
X003395Y001031D01*
X003399Y001040D01*
X002651Y001040D01*
X002573Y000961D01*
X002461Y000915D01*
X002339Y000915D01*
X002227Y000961D01*
X002141Y001047D01*
X002095Y001159D01*
X002095Y001281D01*
X002141Y001393D01*
X002227Y001479D01*
X002339Y001525D01*
X002461Y001525D01*
X002573Y001479D01*
X002651Y001400D01*
X003425Y001400D01*
X003520Y001495D01*
X003520Y001961D01*
X003620Y002061D01*
X003725Y002166D01*
X004115Y002166D01*
X004157Y002209D01*
X004269Y002255D01*
X004391Y002255D01*
X004503Y002209D01*
X004589Y002123D01*
X004635Y002011D01*
X004635Y001889D01*
X004589Y001777D01*
X004503Y001691D01*
X004391Y001645D01*
X004269Y001645D01*
X004157Y001691D01*
X004071Y001777D01*
X004059Y001806D01*
X003880Y001806D01*
X003880Y001345D01*
X003795Y001261D01*
X003873Y001229D01*
X003951Y001150D01*
X004325Y001150D01*
X005150Y001975D01*
X005150Y002019D01*
X005226Y002203D01*
X005367Y002344D01*
X005532Y002412D01*
X005528Y002413D01*
X005450Y002438D01*
X005377Y002475D01*
X005311Y002523D01*
X005253Y002581D01*
X005205Y002647D01*
X005168Y002720D01*
X005143Y002798D01*
X005131Y002870D01*
X005600Y002870D01*
X005600Y002970D01*
X005131Y002970D01*
X005143Y003042D01*
X005168Y003120D01*
X005205Y003193D01*
X005253Y003259D01*
X005311Y003317D01*
X005377Y003365D01*
X005450Y003402D01*
X005528Y003427D01*
X005532Y003428D01*
X005367Y003496D01*
X005226Y003637D01*
X005150Y003821D01*
X005150Y004019D01*
X005226Y004203D01*
X005308Y004285D01*
X001170Y004285D01*
X001170Y003970D01*
X000700Y003970D01*
X000700Y003870D01*
X001170Y003870D01*
X001170Y003530D01*
X001160Y003492D01*
X001140Y003458D01*
X001112Y003430D01*
X001078Y003410D01*
X001040Y003400D01*
X000798Y003400D01*
X000933Y003344D01*
X001074Y003203D01*
X001117Y003100D01*
X001899Y003100D01*
X001841Y003157D01*
X001795Y003269D01*
X001795Y003391D01*
X001841Y003503D01*
X001927Y003589D01*
X002039Y003635D01*
X002161Y003635D01*
X002273Y003589D01*
X002351Y003510D01*
X002864Y003510D01*
X002881Y003553D01*
X002967Y003639D01*
X003079Y003685D01*
X003201Y003685D01*
X003313Y003639D01*
X003399Y003553D01*
X003445Y003441D01*
X003445Y003420D01*
X003525Y003500D01*
X004299Y003500D01*
X004377Y003579D01*
X004489Y003625D01*
X004611Y003625D01*
X004723Y003579D01*
X004809Y003493D01*
X004855Y003381D01*
X004855Y003259D01*
X004809Y003147D01*
X004723Y003061D01*
X004611Y003015D01*
X004489Y003015D01*
X004377Y003061D01*
X004299Y003140D01*
X003675Y003140D01*
X003375Y002840D01*
X002525Y002840D01*
X002425Y002740D01*
X001117Y002740D01*
X001098Y002694D01*
X001183Y002659D01*
X001269Y002573D01*
X001315Y002461D01*
X001315Y002339D01*
X001312Y002332D01*
X001430Y002200D01*
X002899Y002200D01*
X002977Y002279D01*
X003089Y002325D01*
X003211Y002325D01*
X003323Y002279D01*
X003409Y002193D01*
X003455Y002081D01*
X003455Y001959D01*
X003409Y001847D01*
X003323Y001761D01*
X003211Y001715D01*
X003089Y001715D01*
X002977Y001761D01*
X002899Y001840D01*
X001419Y001840D01*
X001414Y001836D01*
X001345Y001840D01*
X001275Y001840D01*
X001271Y001844D01*
X001266Y001844D01*
X001219Y001896D01*
X001170Y001945D01*
X001170Y001951D01*
X001150Y001974D01*
X001150Y001821D01*
X001074Y001637D01*
X000933Y001496D01*
X000749Y001420D01*
X000551Y001420D01*
X000367Y001496D01*
X000285Y001578D01*
X000285Y001262D01*
X000367Y001344D01*
X000551Y001420D01*
X000749Y001420D01*
X000933Y001344D01*
X001074Y001203D01*
X001150Y001019D01*
X001150Y000821D01*
X001074Y000637D01*
X001054Y000617D02*
X005246Y000617D01*
X005194Y000716D02*
X003877Y000716D01*
X003700Y000970D02*
X004400Y000970D01*
X005350Y001920D01*
X005650Y001920D01*
X005181Y002095D02*
X004600Y002095D01*
X004635Y001996D02*
X005150Y001996D01*
X005073Y001898D02*
X004635Y001898D01*
X004598Y001799D02*
X004974Y001799D01*
X004876Y001701D02*
X004512Y001701D01*
X004777Y001602D02*
X003880Y001602D01*
X003880Y001701D02*
X004148Y001701D01*
X004062Y001799D02*
X003880Y001799D01*
X003700Y001886D02*
X003800Y001986D01*
X004294Y001986D01*
X004330Y001950D01*
X004518Y002193D02*
X005222Y002193D01*
X005314Y002292D02*
X003292Y002292D01*
X003408Y002193D02*
X004142Y002193D01*
X003700Y001886D02*
X003700Y001420D01*
X003500Y001220D01*
X002400Y001220D01*
X002622Y001011D02*
X003395Y001011D01*
X003395Y000913D02*
X001150Y000913D01*
X001147Y000814D02*
X003434Y000814D01*
X003523Y000716D02*
X001106Y000716D01*
X001150Y001011D02*
X002178Y001011D01*
X002116Y001110D02*
X001113Y001110D01*
X001069Y001208D02*
X002095Y001208D01*
X002106Y001307D02*
X000971Y001307D01*
X000786Y001405D02*
X002154Y001405D01*
X002287Y001504D02*
X000941Y001504D01*
X001039Y001602D02*
X003520Y001602D01*
X003520Y001701D02*
X001100Y001701D01*
X001141Y001799D02*
X002940Y001799D01*
X003150Y002020D02*
X001350Y002020D01*
X001010Y002400D01*
X001315Y002390D02*
X005478Y002390D01*
X005359Y002489D02*
X001303Y002489D01*
X001254Y002587D02*
X005249Y002587D01*
X005186Y002686D02*
X001118Y002686D01*
X000650Y002920D02*
X002350Y002920D01*
X002450Y003020D01*
X003300Y003020D01*
X003600Y003320D01*
X004550Y003320D01*
X004821Y003178D02*
X005198Y003178D01*
X005155Y003080D02*
X004741Y003080D01*
X004855Y003277D02*
X005271Y003277D01*
X005398Y003375D02*
X004855Y003375D01*
X004817Y003474D02*
X005421Y003474D01*
X005291Y003572D02*
X004729Y003572D01*
X004371Y003572D02*
X003379Y003572D01*
X003431Y003474D02*
X003499Y003474D01*
X003236Y003671D02*
X005212Y003671D01*
X005171Y003769D02*
X001170Y003769D01*
X001170Y003671D02*
X003044Y003671D01*
X002901Y003572D02*
X002289Y003572D01*
X002100Y003330D02*
X003090Y003330D01*
X003140Y003380D01*
X003516Y002981D02*
X005133Y002981D01*
X005147Y002784D02*
X002469Y002784D01*
X003008Y002292D02*
X001349Y002292D01*
X001218Y001898D02*
X001150Y001898D01*
X000514Y001405D02*
X000285Y001405D01*
X000285Y001307D02*
X000329Y001307D01*
X000359Y001504D02*
X000285Y001504D01*
X002513Y001504D02*
X003520Y001504D01*
X003430Y001405D02*
X002646Y001405D01*
X003360Y001799D02*
X003520Y001799D01*
X003520Y001898D02*
X003429Y001898D01*
X003455Y001996D02*
X003555Y001996D01*
X003654Y002095D02*
X003449Y002095D01*
X003880Y001504D02*
X004679Y001504D01*
X004580Y001405D02*
X003880Y001405D01*
X003841Y001307D02*
X004482Y001307D01*
X004383Y001208D02*
X003893Y001208D01*
X004499Y000814D02*
X005153Y000814D01*
X005150Y000913D02*
X004597Y000913D01*
X004696Y001011D02*
X005150Y001011D01*
X005187Y001110D02*
X004794Y001110D01*
X004893Y001208D02*
X005231Y001208D01*
X005329Y001307D02*
X004991Y001307D01*
X005090Y001405D02*
X005514Y001405D01*
X005359Y001504D02*
X005188Y001504D01*
X005786Y001405D02*
X006015Y001405D01*
X006015Y001307D02*
X005971Y001307D01*
X005941Y001504D02*
X006015Y001504D01*
X005600Y002883D02*
X003417Y002883D01*
X003614Y003080D02*
X004359Y003080D01*
X005150Y003868D02*
X001170Y003868D01*
X001170Y004065D02*
X005169Y004065D01*
X005150Y003966D02*
X000700Y003966D01*
X001170Y004163D02*
X005209Y004163D01*
X005284Y004262D02*
X001170Y004262D01*
X001170Y003572D02*
X001911Y003572D01*
X001829Y003474D02*
X001149Y003474D01*
X001001Y003277D02*
X001795Y003277D01*
X001795Y003375D02*
X000858Y003375D01*
X001084Y003178D02*
X001833Y003178D01*
D13*
X002100Y003330D03*
X003140Y003380D03*
X004550Y003320D03*
X003150Y002020D03*
X002400Y001220D03*
X003700Y000970D03*
X004330Y001950D03*
X001010Y002400D03*
M02*
