G75*
%MOIN*%
%OFA0B0*%
%FSLAX24Y24*%
%IPPOS*%
%LPD*%
%AMOC8*
5,1,8,0,0,1.08239X$1,22.5*
%
%ADD10C,0.0010*%
%ADD11R,0.0433X0.0394*%
%ADD12R,0.0394X0.0433*%
%ADD13R,0.0354X0.0138*%
%ADD14R,0.0250X0.0500*%
%ADD15R,0.0500X0.0250*%
%ADD16R,0.0740X0.0740*%
%ADD17C,0.0740*%
%ADD18C,0.0100*%
%ADD19C,0.0350*%
D10*
X000150Y000420D02*
X006150Y000420D01*
X006150Y004420D01*
X000150Y004420D01*
X000150Y000420D01*
D11*
X001996Y003820D03*
X002704Y003820D03*
X003546Y003820D03*
X004254Y003820D03*
D12*
X004350Y001474D03*
X004350Y000766D03*
X001900Y000766D03*
X001900Y001474D03*
D13*
X002668Y002036D03*
X002668Y002292D03*
X002668Y002548D03*
X002668Y002804D03*
X003632Y002804D03*
X003632Y002548D03*
X003632Y002292D03*
X003632Y002036D03*
D14*
X003227Y001020D03*
X002873Y001020D03*
D15*
X002000Y002343D03*
X002000Y002697D03*
X004300Y002697D03*
X004300Y002343D03*
D16*
X000650Y003920D03*
D17*
X000650Y002920D03*
X000650Y001920D03*
X000650Y000920D03*
X005650Y000920D03*
X005650Y001920D03*
X005650Y002920D03*
X005650Y003920D03*
D18*
X005200Y003920D01*
X004900Y004220D01*
X003550Y004220D01*
X003500Y004170D01*
X003500Y003824D01*
X003546Y003820D01*
X003496Y003766D01*
X003500Y003530D01*
X003350Y003380D01*
X003140Y003380D01*
X002835Y003375D02*
X002405Y003375D01*
X002405Y003391D02*
X002359Y003503D01*
X002317Y003544D01*
X002342Y003569D01*
X002342Y003587D01*
X002348Y003565D01*
X002368Y003531D01*
X002396Y003503D01*
X002430Y003483D01*
X002468Y003473D01*
X002656Y003473D01*
X002656Y003772D01*
X002753Y003772D01*
X002753Y003868D01*
X003071Y003868D01*
X003071Y004037D01*
X003061Y004075D01*
X003041Y004109D01*
X003013Y004137D01*
X002979Y004157D01*
X002941Y004167D01*
X002753Y004167D01*
X002753Y003868D01*
X002656Y003868D01*
X002656Y004167D01*
X002468Y004167D01*
X002430Y004157D01*
X002396Y004137D01*
X002368Y004109D01*
X002348Y004075D01*
X002342Y004053D01*
X002342Y004071D01*
X002266Y004147D01*
X001725Y004147D01*
X001649Y004071D01*
X001649Y004000D01*
X001375Y004000D01*
X001175Y003800D01*
X001170Y003795D01*
X001170Y003870D01*
X000700Y003870D01*
X000700Y003970D01*
X001170Y003970D01*
X001170Y004285D01*
X003360Y004285D01*
X003320Y004245D01*
X003320Y004147D01*
X003275Y004147D01*
X003199Y004071D01*
X003199Y003685D01*
X003079Y003685D01*
X003071Y003681D01*
X003071Y003772D01*
X002753Y003772D01*
X002753Y003473D01*
X002848Y003473D01*
X002835Y003441D01*
X002835Y003319D01*
X002881Y003207D01*
X002967Y003121D01*
X003079Y003075D01*
X003201Y003075D01*
X003313Y003121D01*
X003391Y003200D01*
X003425Y003200D01*
X003530Y003305D01*
X003576Y003351D01*
X003578Y003351D01*
X003628Y003404D01*
X003680Y003455D01*
X003680Y003457D01*
X003681Y003459D01*
X003681Y003493D01*
X003816Y003493D01*
X003892Y003569D01*
X003892Y003587D01*
X003898Y003565D01*
X003918Y003531D01*
X003946Y003503D01*
X003980Y003483D01*
X004018Y003473D01*
X004206Y003473D01*
X004206Y003772D01*
X004303Y003772D01*
X004303Y003868D01*
X004621Y003868D01*
X004621Y004037D01*
X004620Y004040D01*
X004825Y004040D01*
X005125Y003740D01*
X005183Y003740D01*
X005226Y003637D01*
X005367Y003496D01*
X005532Y003428D01*
X005528Y003427D01*
X005450Y003402D01*
X005377Y003365D01*
X005311Y003317D01*
X005253Y003259D01*
X005205Y003193D01*
X005168Y003120D01*
X005143Y003042D01*
X005131Y002970D01*
X005600Y002970D01*
X005600Y002870D01*
X005131Y002870D01*
X005143Y002798D01*
X005168Y002720D01*
X005205Y002647D01*
X005253Y002581D01*
X005311Y002523D01*
X005377Y002475D01*
X005450Y002438D01*
X005528Y002413D01*
X005532Y002412D01*
X005367Y002344D01*
X005271Y002249D01*
X005086Y002430D01*
X005086Y002430D01*
X005033Y002482D01*
X004980Y002534D01*
X004979Y002534D01*
X004905Y002533D01*
X004831Y002532D01*
X004830Y002532D01*
X004714Y002530D01*
X004830Y002645D01*
X004830Y003199D01*
X004855Y003259D01*
X004855Y003381D01*
X004809Y003493D01*
X004723Y003579D01*
X004621Y003621D01*
X004621Y003772D01*
X004303Y003772D01*
X004303Y003504D01*
X004291Y003493D01*
X004245Y003381D01*
X004245Y003259D01*
X004291Y003147D01*
X004377Y003061D01*
X004470Y003023D01*
X004470Y002952D01*
X003996Y002952D01*
X003955Y002911D01*
X003949Y002931D01*
X003929Y002965D01*
X003902Y002993D01*
X003867Y003013D01*
X003829Y003023D01*
X003632Y003023D01*
X003435Y003023D01*
X003397Y003013D01*
X003363Y002993D01*
X003335Y002965D01*
X003315Y002931D01*
X003305Y002893D01*
X003305Y002804D01*
X003632Y002804D01*
X003632Y002804D01*
X003632Y003023D01*
X003632Y002804D01*
X003632Y002804D01*
X003305Y002804D01*
X003305Y002715D01*
X003315Y002677D01*
X003325Y002660D01*
X003325Y002450D01*
X003220Y002345D01*
X003200Y002325D01*
X003089Y002325D01*
X002977Y002279D01*
X002975Y002276D01*
X002975Y002404D01*
X002985Y002421D01*
X002995Y002459D01*
X002995Y002548D01*
X002995Y002637D01*
X002985Y002675D01*
X002975Y002692D01*
X002975Y002927D01*
X002899Y003003D01*
X002437Y003003D01*
X002384Y002950D01*
X002306Y002950D01*
X002304Y002952D01*
X002180Y002952D01*
X002180Y003033D01*
X002273Y003071D01*
X002359Y003157D01*
X002405Y003269D01*
X002405Y003391D01*
X002371Y003474D02*
X002467Y003474D01*
X002346Y003572D02*
X002342Y003572D01*
X002656Y003572D02*
X002753Y003572D01*
X002753Y003474D02*
X002656Y003474D01*
X002656Y003671D02*
X002753Y003671D01*
X002753Y003769D02*
X002656Y003769D01*
X002753Y003868D02*
X003199Y003868D01*
X003199Y003966D02*
X003071Y003966D01*
X003063Y004065D02*
X003199Y004065D01*
X003320Y004163D02*
X002955Y004163D01*
X002753Y004163D02*
X002656Y004163D01*
X002656Y004065D02*
X002753Y004065D01*
X002753Y003966D02*
X002656Y003966D01*
X002454Y004163D02*
X001170Y004163D01*
X001170Y004262D02*
X003337Y004262D01*
X003199Y003769D02*
X003071Y003769D01*
X003601Y003375D02*
X004245Y003375D01*
X004245Y003277D02*
X003501Y003277D01*
X003369Y003178D02*
X004279Y003178D01*
X004359Y003080D02*
X003212Y003080D01*
X003068Y003080D02*
X002281Y003080D01*
X002367Y003178D02*
X002911Y003178D01*
X002853Y003277D02*
X002405Y003277D01*
X002100Y003330D02*
X002000Y003230D01*
X002000Y002697D01*
X002127Y002697D01*
X002200Y002770D01*
X002552Y002770D01*
X002668Y002804D01*
X002920Y002981D02*
X003351Y002981D01*
X003305Y002883D02*
X002975Y002883D01*
X002975Y002784D02*
X003305Y002784D01*
X003313Y002686D02*
X002978Y002686D01*
X002995Y002587D02*
X003325Y002587D01*
X003325Y002489D02*
X002995Y002489D01*
X002995Y002548D02*
X002668Y002548D01*
X002995Y002548D01*
X002975Y002390D02*
X003265Y002390D01*
X003400Y002270D02*
X003604Y002270D01*
X003632Y002292D01*
X003400Y002270D02*
X003150Y002020D01*
X003008Y002292D02*
X002975Y002292D01*
X002668Y002292D02*
X002067Y002293D01*
X002000Y002343D01*
X002150Y002220D01*
X002150Y001920D01*
X002600Y001470D01*
X003100Y001470D01*
X003200Y001370D01*
X003200Y001220D01*
X003227Y001143D01*
X003250Y000970D01*
X003700Y000970D01*
X004050Y001120D02*
X003600Y001620D01*
X003550Y001670D01*
X002750Y001670D01*
X002650Y001770D01*
X002650Y002018D01*
X002668Y002036D01*
X002668Y002548D02*
X002668Y002548D01*
X002415Y002981D02*
X002180Y002981D01*
X002000Y002343D02*
X001973Y002270D01*
X001600Y002270D01*
X001250Y002620D01*
X001250Y003620D01*
X001450Y003820D01*
X001996Y003820D01*
X001649Y004065D02*
X001170Y004065D01*
X001341Y003966D02*
X000700Y003966D01*
X001170Y003868D02*
X001243Y003868D01*
X002342Y004065D02*
X002345Y004065D01*
X003681Y003474D02*
X004017Y003474D01*
X003896Y003572D02*
X003892Y003572D01*
X004206Y003572D02*
X004303Y003572D01*
X004303Y003671D02*
X004206Y003671D01*
X004206Y003769D02*
X004303Y003769D01*
X004303Y003868D02*
X004998Y003868D01*
X004899Y003966D02*
X004621Y003966D01*
X004621Y003769D02*
X005096Y003769D01*
X005212Y003671D02*
X004621Y003671D01*
X004729Y003572D02*
X005291Y003572D01*
X005421Y003474D02*
X004817Y003474D01*
X004855Y003375D02*
X005398Y003375D01*
X005271Y003277D02*
X004855Y003277D01*
X004830Y003178D02*
X005198Y003178D01*
X005155Y003080D02*
X004830Y003080D01*
X004830Y002981D02*
X005133Y002981D01*
X005147Y002784D02*
X004830Y002784D01*
X004830Y002686D02*
X005186Y002686D01*
X005249Y002587D02*
X004772Y002587D01*
X004650Y002720D02*
X004600Y002670D01*
X004450Y002670D01*
X004500Y002697D01*
X004300Y002697D01*
X004327Y002720D01*
X004050Y002720D01*
X003878Y002548D01*
X003632Y002548D01*
X003632Y002883D02*
X003632Y002883D01*
X003632Y002981D02*
X003632Y002981D01*
X003913Y002981D02*
X004470Y002981D01*
X004650Y003220D02*
X004650Y002720D01*
X004830Y002883D02*
X005600Y002883D01*
X005359Y002489D02*
X005026Y002489D01*
X004979Y002534D02*
X004979Y002534D01*
X005127Y002390D02*
X005478Y002390D01*
X005314Y002292D02*
X005227Y002292D01*
X004907Y002353D02*
X005350Y001920D01*
X005650Y001920D01*
X004907Y002353D02*
X004300Y002343D01*
X003834Y001986D02*
X003950Y001870D01*
X003950Y001524D01*
X004000Y001474D01*
X004000Y001470D01*
X004350Y001474D01*
X004400Y001524D01*
X004400Y001870D01*
X004330Y001950D01*
X003834Y001986D02*
X003632Y002036D01*
X003227Y001143D02*
X003227Y001020D01*
X002873Y001020D02*
X002873Y000747D01*
X003000Y000620D01*
X004204Y000620D01*
X004350Y000766D01*
X004050Y001120D02*
X005450Y001120D01*
X005650Y000920D01*
X002873Y001020D02*
X002650Y001020D01*
X002396Y000766D01*
X001900Y000766D01*
X002300Y001120D02*
X002400Y001220D01*
X002300Y001120D02*
X001350Y001120D01*
X001150Y000920D01*
X000650Y000920D01*
X000966Y001474D02*
X000650Y001790D01*
X000650Y001920D01*
X000966Y001474D02*
X001900Y001474D01*
X001450Y001920D01*
X001010Y002400D01*
X004206Y003474D02*
X004283Y003474D01*
X004550Y003320D02*
X004650Y003220D01*
D19*
X004550Y003320D03*
X003140Y003380D03*
X002100Y003330D03*
X001010Y002400D03*
X002400Y001220D03*
X003150Y002020D03*
X004330Y001950D03*
X003700Y000970D03*
M02*
