G75*
%MOIN*%
%OFA0B0*%
%FSLAX24Y24*%
%IPPOS*%
%LPD*%
%AMOC8*
5,1,8,0,0,1.08239X$1,22.5*
%
%ADD10C,0.0020*%
%ADD11C,0.0010*%
%ADD12C,0.0080*%
%ADD13C,0.0100*%
D10*
X001493Y001490D02*
X001493Y001600D01*
X001529Y001637D01*
X001566Y001600D01*
X001566Y001490D01*
X001639Y001490D02*
X001639Y001637D01*
X001603Y001637D01*
X001566Y001600D01*
X001714Y001600D02*
X001714Y001527D01*
X001750Y001490D01*
X001824Y001490D01*
X001860Y001527D01*
X001860Y001600D01*
X001824Y001637D01*
X001750Y001637D01*
X001714Y001600D01*
X001935Y001637D02*
X002045Y001637D01*
X002081Y001600D01*
X002081Y001527D01*
X002045Y001490D01*
X001935Y001490D01*
X002155Y001490D02*
X002192Y001490D01*
X002192Y001527D01*
X002155Y001527D01*
X002155Y001490D01*
X002266Y001490D02*
X002376Y001490D01*
X002413Y001527D01*
X002413Y001600D01*
X002376Y001637D01*
X002266Y001637D01*
X002487Y001490D02*
X002560Y001490D01*
X002523Y001490D02*
X002523Y001637D01*
X002560Y001637D01*
X002634Y001637D02*
X002707Y001637D01*
X002671Y001673D02*
X002671Y001527D01*
X002634Y001490D01*
X002782Y001527D02*
X002782Y001600D01*
X002818Y001637D01*
X002892Y001637D01*
X002928Y001600D01*
X002928Y001527D01*
X002892Y001490D01*
X002818Y001490D01*
X002782Y001527D01*
X003003Y001527D02*
X003003Y001600D01*
X003039Y001637D01*
X003149Y001637D01*
X003149Y001710D02*
X003149Y001490D01*
X003039Y001490D01*
X003003Y001527D01*
X003224Y001527D02*
X003260Y001490D01*
X003334Y001490D01*
X003370Y001527D01*
X003370Y001600D01*
X003334Y001637D01*
X003260Y001637D01*
X003224Y001600D01*
X003224Y001527D01*
X003444Y001637D02*
X003481Y001637D01*
X003555Y001563D01*
X003555Y001490D02*
X003555Y001637D01*
X003629Y001637D02*
X003739Y001637D01*
X003776Y001600D01*
X003776Y001527D01*
X003739Y001490D01*
X003629Y001490D01*
X003850Y001490D02*
X003960Y001490D01*
X003997Y001527D01*
X003960Y001563D01*
X003850Y001563D01*
X003850Y001600D02*
X003850Y001490D01*
X003850Y001600D02*
X003886Y001637D01*
X003960Y001637D01*
X004070Y001527D02*
X004070Y001490D01*
X004107Y001490D01*
X004107Y001527D01*
X004070Y001527D01*
X004181Y001527D02*
X004181Y001637D01*
X004181Y001527D02*
X004218Y001490D01*
X004255Y001527D01*
X004291Y001490D01*
X004328Y001527D01*
X004328Y001637D01*
X004402Y001637D02*
X004402Y001527D01*
X004439Y001490D01*
X004476Y001527D01*
X004512Y001490D01*
X004549Y001527D01*
X004549Y001637D01*
X004623Y001637D02*
X004623Y001527D01*
X004660Y001490D01*
X004697Y001527D01*
X004733Y001490D01*
X004770Y001527D01*
X004770Y001637D01*
X004570Y002610D02*
X004460Y002610D01*
X004423Y002647D01*
X004423Y002683D01*
X004460Y002720D01*
X004570Y002720D01*
X004570Y002610D02*
X004570Y002830D01*
X004460Y002830D01*
X004423Y002793D01*
X004423Y002757D01*
X004460Y002720D01*
X004349Y002683D02*
X004276Y002757D01*
X004239Y002757D01*
X004165Y002720D02*
X004128Y002757D01*
X004055Y002757D01*
X004018Y002720D01*
X004018Y002683D01*
X004165Y002683D01*
X004165Y002647D02*
X004128Y002610D01*
X004055Y002610D01*
X004165Y002647D02*
X004165Y002720D01*
X004349Y002757D02*
X004349Y002610D01*
X003944Y002647D02*
X003907Y002683D01*
X003797Y002683D01*
X003797Y002720D02*
X003797Y002610D01*
X003907Y002610D01*
X003944Y002647D01*
X003834Y002757D02*
X003797Y002720D01*
X003834Y002757D02*
X003907Y002757D01*
X003723Y002830D02*
X003723Y002610D01*
X003723Y002683D02*
X003613Y002757D01*
X003539Y002720D02*
X003539Y002647D01*
X003502Y002610D01*
X003429Y002610D01*
X003392Y002647D01*
X003392Y002720D01*
X003429Y002757D01*
X003502Y002757D01*
X003539Y002720D01*
X003613Y002610D02*
X003723Y002683D01*
X003770Y002930D02*
X003880Y002930D01*
X003880Y003150D01*
X003770Y003150D01*
X003733Y003113D01*
X003733Y003077D01*
X003770Y003040D01*
X003880Y003040D01*
X003770Y003040D02*
X003733Y003003D01*
X003733Y002967D01*
X003770Y002930D01*
X003659Y002930D02*
X003659Y003150D01*
X003586Y003077D01*
X003512Y003150D01*
X003512Y002930D01*
X003438Y002930D02*
X003291Y002930D01*
X003365Y003040D02*
X003438Y003040D01*
X003438Y003150D02*
X003438Y002930D01*
X003318Y002757D02*
X003318Y002647D01*
X003281Y002610D01*
X003171Y002610D01*
X003171Y002757D01*
X003097Y002757D02*
X003023Y002757D01*
X003060Y002793D02*
X003060Y002647D01*
X003023Y002610D01*
X002728Y002610D02*
X002728Y002830D01*
X002618Y002830D01*
X002582Y002793D01*
X002582Y002757D01*
X002618Y002720D01*
X002728Y002720D01*
X002618Y002720D02*
X002582Y002683D01*
X002582Y002647D01*
X002618Y002610D01*
X002728Y002610D01*
X002507Y002647D02*
X002471Y002610D01*
X002397Y002610D01*
X002361Y002647D01*
X002361Y002720D01*
X002397Y002757D01*
X002471Y002757D01*
X002507Y002720D01*
X002507Y002647D01*
X002286Y002647D02*
X002250Y002683D01*
X002140Y002683D01*
X002140Y002720D02*
X002140Y002610D01*
X002250Y002610D01*
X002286Y002647D01*
X002250Y002757D02*
X002176Y002757D01*
X002140Y002720D01*
X002065Y002683D02*
X001992Y002757D01*
X001955Y002757D01*
X002065Y002757D02*
X002065Y002610D01*
X001881Y002647D02*
X001881Y002720D01*
X001845Y002757D01*
X001735Y002757D01*
X001735Y002830D02*
X001735Y002610D01*
X001845Y002610D01*
X001881Y002647D01*
X002407Y002967D02*
X002444Y002930D01*
X002517Y002930D01*
X002554Y002967D01*
X002407Y003113D01*
X002407Y002967D01*
X002554Y002967D02*
X002554Y003113D01*
X002517Y003150D01*
X002444Y003150D01*
X002407Y003113D01*
X002628Y003113D02*
X002628Y003077D01*
X002665Y003040D01*
X002738Y003040D01*
X002775Y003077D01*
X002775Y003113D01*
X002738Y003150D01*
X002665Y003150D01*
X002628Y003113D01*
X002665Y003040D02*
X002628Y003003D01*
X002628Y002967D01*
X002665Y002930D01*
X002738Y002930D01*
X002775Y002967D01*
X002775Y003003D01*
X002738Y003040D01*
X002849Y003077D02*
X002849Y003113D01*
X002886Y003150D01*
X002959Y003150D01*
X002996Y003113D01*
X002849Y003077D02*
X002996Y002930D01*
X002849Y002930D01*
X003291Y003150D02*
X003438Y003150D01*
X002523Y001747D02*
X002523Y001710D01*
D11*
X002674Y001428D02*
X002674Y000498D01*
X002948Y000498D01*
X002948Y000772D01*
X002898Y000796D01*
X002898Y001080D01*
X002946Y001120D01*
X002976Y001120D01*
X002976Y001238D01*
X002998Y001260D01*
X003124Y001260D01*
X003152Y001234D01*
X003152Y001142D01*
X003174Y001142D01*
X003174Y001120D01*
X003152Y001120D01*
X002978Y001120D01*
X002978Y001136D01*
X003178Y001136D01*
X003178Y001118D01*
X003226Y001078D01*
X003226Y000796D01*
X003176Y000770D01*
X003176Y000500D01*
X003450Y000500D01*
X003450Y001428D01*
X002674Y001428D01*
X002674Y001423D02*
X003450Y001423D01*
X003450Y001415D02*
X002674Y001415D01*
X002674Y001406D02*
X003450Y001406D01*
X003450Y001398D02*
X002674Y001398D01*
X002674Y001389D02*
X003450Y001389D01*
X003450Y001381D02*
X002674Y001381D01*
X002674Y001372D02*
X003450Y001372D01*
X003450Y001364D02*
X002674Y001364D01*
X002674Y001355D02*
X003450Y001355D01*
X003450Y001347D02*
X002674Y001347D01*
X002674Y001338D02*
X003450Y001338D01*
X003450Y001330D02*
X002674Y001330D01*
X002674Y001321D02*
X003450Y001321D01*
X003450Y001313D02*
X002674Y001313D01*
X002674Y001304D02*
X003450Y001304D01*
X003450Y001296D02*
X002674Y001296D01*
X002674Y001287D02*
X003450Y001287D01*
X003450Y001279D02*
X002674Y001279D01*
X002674Y001270D02*
X003450Y001270D01*
X003450Y001262D02*
X002674Y001262D01*
X002674Y001253D02*
X002991Y001253D01*
X002983Y001245D02*
X002674Y001245D01*
X002674Y001236D02*
X002976Y001236D01*
X002976Y001228D02*
X002674Y001228D01*
X002674Y001219D02*
X002976Y001219D01*
X002976Y001211D02*
X002674Y001211D01*
X002674Y001202D02*
X002976Y001202D01*
X002976Y001194D02*
X002674Y001194D01*
X002674Y001185D02*
X002976Y001185D01*
X002976Y001177D02*
X002674Y001177D01*
X002674Y001168D02*
X002976Y001168D01*
X002976Y001160D02*
X002674Y001160D01*
X002674Y001151D02*
X002976Y001151D01*
X002976Y001143D02*
X002674Y001143D01*
X002674Y001134D02*
X002976Y001134D01*
X002978Y001134D02*
X003174Y001134D01*
X003178Y001134D02*
X003450Y001134D01*
X003450Y001126D02*
X003178Y001126D01*
X003174Y001126D02*
X002978Y001126D01*
X002976Y001126D02*
X002674Y001126D01*
X002674Y001117D02*
X002942Y001117D01*
X002932Y001109D02*
X002674Y001109D01*
X002674Y001100D02*
X002922Y001100D01*
X002912Y001092D02*
X002674Y001092D01*
X002674Y001083D02*
X002902Y001083D01*
X002898Y001075D02*
X002674Y001075D01*
X002674Y001066D02*
X002898Y001066D01*
X002898Y001058D02*
X002674Y001058D01*
X002674Y001049D02*
X002898Y001049D01*
X002898Y001041D02*
X002674Y001041D01*
X002674Y001032D02*
X002898Y001032D01*
X002898Y001024D02*
X002674Y001024D01*
X002674Y001015D02*
X002898Y001015D01*
X002898Y001007D02*
X002674Y001007D01*
X002674Y000998D02*
X002898Y000998D01*
X002898Y000990D02*
X002674Y000990D01*
X002674Y000981D02*
X002898Y000981D01*
X002898Y000973D02*
X002674Y000973D01*
X002674Y000964D02*
X002898Y000964D01*
X002898Y000956D02*
X002674Y000956D01*
X002674Y000947D02*
X002898Y000947D01*
X002898Y000939D02*
X002674Y000939D01*
X002674Y000930D02*
X002898Y000930D01*
X002898Y000922D02*
X002674Y000922D01*
X002674Y000913D02*
X002898Y000913D01*
X002898Y000905D02*
X002674Y000905D01*
X002674Y000896D02*
X002898Y000896D01*
X002898Y000888D02*
X002674Y000888D01*
X002674Y000879D02*
X002898Y000879D01*
X002898Y000871D02*
X002674Y000871D01*
X002674Y000862D02*
X002898Y000862D01*
X002898Y000854D02*
X002674Y000854D01*
X002674Y000845D02*
X002898Y000845D01*
X002898Y000837D02*
X002674Y000837D01*
X002674Y000828D02*
X002898Y000828D01*
X002898Y000820D02*
X002674Y000820D01*
X002674Y000811D02*
X002898Y000811D01*
X002898Y000803D02*
X002674Y000803D01*
X002674Y000794D02*
X002902Y000794D01*
X002920Y000786D02*
X002674Y000786D01*
X002674Y000777D02*
X002938Y000777D01*
X002948Y000769D02*
X002674Y000769D01*
X002674Y000760D02*
X002948Y000760D01*
X002948Y000752D02*
X002674Y000752D01*
X002674Y000743D02*
X002948Y000743D01*
X002948Y000735D02*
X002674Y000735D01*
X002674Y000726D02*
X002948Y000726D01*
X002948Y000718D02*
X002674Y000718D01*
X002674Y000709D02*
X002948Y000709D01*
X002948Y000701D02*
X002674Y000701D01*
X002674Y000692D02*
X002948Y000692D01*
X002948Y000684D02*
X002674Y000684D01*
X002674Y000675D02*
X002948Y000675D01*
X002948Y000667D02*
X002674Y000667D01*
X002674Y000658D02*
X002948Y000658D01*
X002948Y000650D02*
X002674Y000650D01*
X002674Y000641D02*
X002948Y000641D01*
X002948Y000633D02*
X002674Y000633D01*
X002674Y000624D02*
X002948Y000624D01*
X002948Y000616D02*
X002674Y000616D01*
X002674Y000607D02*
X002948Y000607D01*
X002948Y000599D02*
X002674Y000599D01*
X002674Y000590D02*
X002948Y000590D01*
X002948Y000582D02*
X002674Y000582D01*
X002674Y000573D02*
X002948Y000573D01*
X002948Y000565D02*
X002674Y000565D01*
X002674Y000556D02*
X002948Y000556D01*
X002948Y000548D02*
X002674Y000548D01*
X002674Y000539D02*
X002948Y000539D01*
X002948Y000531D02*
X002674Y000531D01*
X002674Y000522D02*
X002948Y000522D01*
X002948Y000514D02*
X002674Y000514D01*
X002674Y000505D02*
X002948Y000505D01*
X003176Y000505D02*
X003450Y000505D01*
X003450Y000514D02*
X003176Y000514D01*
X003176Y000522D02*
X003450Y000522D01*
X003450Y000531D02*
X003176Y000531D01*
X003176Y000539D02*
X003450Y000539D01*
X003450Y000548D02*
X003176Y000548D01*
X003176Y000556D02*
X003450Y000556D01*
X003450Y000565D02*
X003176Y000565D01*
X003176Y000573D02*
X003450Y000573D01*
X003450Y000582D02*
X003176Y000582D01*
X003176Y000590D02*
X003450Y000590D01*
X003450Y000599D02*
X003176Y000599D01*
X003176Y000607D02*
X003450Y000607D01*
X003450Y000616D02*
X003176Y000616D01*
X003176Y000624D02*
X003450Y000624D01*
X003450Y000633D02*
X003176Y000633D01*
X003176Y000641D02*
X003450Y000641D01*
X003450Y000650D02*
X003176Y000650D01*
X003176Y000658D02*
X003450Y000658D01*
X003450Y000667D02*
X003176Y000667D01*
X003176Y000675D02*
X003450Y000675D01*
X003450Y000684D02*
X003176Y000684D01*
X003176Y000692D02*
X003450Y000692D01*
X003450Y000701D02*
X003176Y000701D01*
X003176Y000709D02*
X003450Y000709D01*
X003450Y000718D02*
X003176Y000718D01*
X003176Y000726D02*
X003450Y000726D01*
X003450Y000735D02*
X003176Y000735D01*
X003176Y000743D02*
X003450Y000743D01*
X003450Y000752D02*
X003176Y000752D01*
X003176Y000760D02*
X003450Y000760D01*
X003450Y000769D02*
X003176Y000769D01*
X003189Y000777D02*
X003450Y000777D01*
X003450Y000786D02*
X003206Y000786D01*
X003222Y000794D02*
X003450Y000794D01*
X003450Y000803D02*
X003226Y000803D01*
X003226Y000811D02*
X003450Y000811D01*
X003450Y000820D02*
X003226Y000820D01*
X003226Y000828D02*
X003450Y000828D01*
X003450Y000837D02*
X003226Y000837D01*
X003226Y000845D02*
X003450Y000845D01*
X003450Y000854D02*
X003226Y000854D01*
X003226Y000862D02*
X003450Y000862D01*
X003450Y000871D02*
X003226Y000871D01*
X003226Y000879D02*
X003450Y000879D01*
X003450Y000888D02*
X003226Y000888D01*
X003226Y000896D02*
X003450Y000896D01*
X003450Y000905D02*
X003226Y000905D01*
X003226Y000913D02*
X003450Y000913D01*
X003450Y000922D02*
X003226Y000922D01*
X003226Y000930D02*
X003450Y000930D01*
X003450Y000939D02*
X003226Y000939D01*
X003226Y000947D02*
X003450Y000947D01*
X003450Y000956D02*
X003226Y000956D01*
X003226Y000964D02*
X003450Y000964D01*
X003450Y000973D02*
X003226Y000973D01*
X003226Y000981D02*
X003450Y000981D01*
X003450Y000990D02*
X003226Y000990D01*
X003226Y000998D02*
X003450Y000998D01*
X003450Y001007D02*
X003226Y001007D01*
X003226Y001015D02*
X003450Y001015D01*
X003450Y001024D02*
X003226Y001024D01*
X003226Y001032D02*
X003450Y001032D01*
X003450Y001041D02*
X003226Y001041D01*
X003226Y001049D02*
X003450Y001049D01*
X003450Y001058D02*
X003226Y001058D01*
X003226Y001066D02*
X003450Y001066D01*
X003450Y001075D02*
X003226Y001075D01*
X003220Y001083D02*
X003450Y001083D01*
X003450Y001092D02*
X003210Y001092D01*
X003200Y001100D02*
X003450Y001100D01*
X003450Y001109D02*
X003189Y001109D01*
X003179Y001117D02*
X003450Y001117D01*
X003450Y001143D02*
X003152Y001143D01*
X003152Y001151D02*
X003450Y001151D01*
X003450Y001160D02*
X003152Y001160D01*
X003152Y001168D02*
X003450Y001168D01*
X003450Y001177D02*
X003152Y001177D01*
X003152Y001185D02*
X003450Y001185D01*
X003450Y001194D02*
X003152Y001194D01*
X003152Y001202D02*
X003450Y001202D01*
X003450Y001211D02*
X003152Y001211D01*
X003152Y001219D02*
X003450Y001219D01*
X003450Y001228D02*
X003152Y001228D01*
X003150Y001236D02*
X003450Y001236D01*
X003450Y001245D02*
X003141Y001245D01*
X003132Y001253D02*
X003450Y001253D01*
D12*
X000150Y000420D02*
X000150Y004420D01*
X001150Y004420D01*
X001150Y000420D01*
X000150Y000420D01*
D13*
X005150Y000420D02*
X005150Y004420D01*
X006150Y004420D01*
X006150Y000420D01*
X005150Y000420D01*
M02*
