G75*
%MOIN*%
%OFA0B0*%
%FSLAX24Y24*%
%IPPOS*%
%LPD*%
%AMOC8*
5,1,8,0,0,1.08239X$1,22.5*
%
%ADD10C,0.0030*%
%ADD11C,0.0020*%
%ADD12C,0.0220*%
%ADD13R,0.0300X0.0180*%
%ADD14C,0.0120*%
%ADD15C,0.0050*%
%ADD16C,0.0080*%
%ADD17C,0.0100*%
D10*
X001245Y000533D02*
X001293Y000485D01*
X001342Y000485D01*
X001390Y000533D01*
X001390Y000630D01*
X001438Y000678D01*
X001487Y000678D01*
X001535Y000630D01*
X001535Y000533D01*
X001487Y000485D01*
X001245Y000533D02*
X001245Y000630D01*
X001293Y000678D01*
X001293Y000780D02*
X001487Y000780D01*
X001535Y000828D01*
X001535Y000925D01*
X001487Y000973D01*
X001535Y001074D02*
X001245Y001074D01*
X001293Y000973D02*
X001245Y000925D01*
X001245Y000828D01*
X001293Y000780D01*
X001438Y001074D02*
X001245Y001268D01*
X001390Y001123D02*
X001535Y001268D01*
X001507Y001535D02*
X001555Y001583D01*
X001555Y001680D01*
X001507Y001728D01*
X001458Y001728D01*
X001410Y001680D01*
X001410Y001583D01*
X001362Y001535D01*
X001313Y001535D01*
X001265Y001583D01*
X001265Y001680D01*
X001313Y001728D01*
X001265Y001830D02*
X001265Y001975D01*
X001313Y002023D01*
X001507Y002023D01*
X001555Y001975D01*
X001555Y001830D01*
X001265Y001830D01*
X001265Y002124D02*
X001265Y002221D01*
X001265Y002173D02*
X001555Y002173D01*
X001555Y002221D02*
X001555Y002124D01*
X001487Y002505D02*
X001293Y002505D01*
X001245Y002553D01*
X001245Y002650D01*
X001293Y002698D01*
X001293Y002800D02*
X001342Y002800D01*
X001390Y002848D01*
X001390Y002945D01*
X001438Y002993D01*
X001487Y002993D01*
X001535Y002945D01*
X001535Y002848D01*
X001487Y002800D01*
X001487Y002698D02*
X001535Y002650D01*
X001535Y002553D01*
X001487Y002505D01*
X001293Y002800D02*
X001245Y002848D01*
X001245Y002945D01*
X001293Y002993D01*
X001245Y003094D02*
X001245Y003239D01*
X001293Y003288D01*
X001342Y003288D01*
X001390Y003239D01*
X001390Y003094D01*
X001535Y003094D02*
X001535Y003239D01*
X001487Y003288D01*
X001438Y003288D01*
X001390Y003239D01*
X001535Y003094D02*
X001245Y003094D01*
X001293Y003485D02*
X001487Y003485D01*
X001535Y003533D01*
X001535Y003630D01*
X001487Y003678D01*
X001390Y003678D01*
X001390Y003582D01*
X001293Y003678D02*
X001245Y003630D01*
X001245Y003533D01*
X001293Y003485D01*
X001245Y003780D02*
X001535Y003973D01*
X001245Y003973D01*
X001245Y004074D02*
X001245Y004219D01*
X001293Y004268D01*
X001487Y004268D01*
X001535Y004219D01*
X001535Y004074D01*
X001245Y004074D01*
X001245Y003780D02*
X001535Y003780D01*
X004765Y003815D02*
X004813Y003767D01*
X005007Y003767D01*
X005055Y003815D01*
X005055Y003960D01*
X004765Y003960D01*
X004765Y003815D01*
X004765Y003666D02*
X004765Y003521D01*
X004813Y003472D01*
X005007Y003472D01*
X005055Y003521D01*
X005055Y003666D01*
X004765Y003666D01*
X004862Y004062D02*
X005055Y004062D01*
X004862Y004062D02*
X004765Y004158D01*
X004862Y004255D01*
X005055Y004255D01*
X005007Y003255D02*
X004813Y003255D01*
X004765Y003207D01*
X004765Y003110D01*
X004813Y003062D01*
X004910Y003062D01*
X004910Y003158D01*
X005007Y003255D02*
X005055Y003207D01*
X005055Y003110D01*
X005007Y003062D01*
X005055Y002960D02*
X004765Y002767D01*
X005055Y002767D01*
X005055Y002666D02*
X005055Y002521D01*
X005007Y002472D01*
X004813Y002472D01*
X004765Y002521D01*
X004765Y002666D01*
X005055Y002666D01*
X005055Y002960D02*
X004765Y002960D01*
X004813Y001305D02*
X004765Y001257D01*
X004765Y001160D01*
X004813Y001112D01*
X004862Y001112D01*
X004910Y001160D01*
X004910Y001257D01*
X004958Y001305D01*
X005007Y001305D01*
X005055Y001257D01*
X005055Y001160D01*
X005007Y001112D01*
X005055Y001010D02*
X005055Y000865D01*
X005007Y000817D01*
X004813Y000817D01*
X004765Y000865D01*
X004765Y001010D01*
X005055Y001010D01*
X005007Y000716D02*
X004813Y000716D01*
X004765Y000667D01*
X004765Y000571D01*
X004813Y000522D01*
X005007Y000522D01*
X005055Y000571D01*
X005055Y000667D01*
X005007Y000716D01*
D11*
X005010Y001415D02*
X004890Y001415D01*
X004860Y001445D01*
X004860Y001505D01*
X004890Y001535D01*
X005010Y001535D01*
X005040Y001505D01*
X005040Y001445D01*
X005010Y001415D01*
X005040Y001597D02*
X005040Y001658D01*
X005040Y001628D02*
X004860Y001628D01*
X004860Y001658D02*
X004860Y001597D01*
X004890Y001722D02*
X005010Y001722D01*
X005040Y001752D01*
X005040Y001842D01*
X004860Y001842D01*
X004860Y001752D01*
X004890Y001722D01*
X004890Y001906D02*
X005010Y001906D01*
X005040Y001936D01*
X005040Y002026D01*
X004860Y002026D01*
X004860Y001936D01*
X004890Y001906D01*
X004920Y002090D02*
X005040Y002090D01*
X004920Y002090D02*
X004860Y002150D01*
X004920Y002210D01*
X005040Y002210D01*
X004673Y002870D02*
X004552Y002870D01*
X004552Y003050D01*
X004673Y003050D01*
X004613Y002960D02*
X004552Y002960D01*
X004488Y002900D02*
X004488Y003020D01*
X004458Y003050D01*
X004368Y003050D01*
X004368Y002870D01*
X004458Y002870D01*
X004488Y002900D01*
X004304Y002900D02*
X004304Y003020D01*
X004274Y003050D01*
X004214Y003050D01*
X004184Y003020D01*
X004184Y002900D01*
X004214Y002870D01*
X004274Y002870D01*
X004304Y002900D01*
X004120Y002870D02*
X004120Y003050D01*
X004060Y002990D01*
X004000Y003050D01*
X004000Y002870D01*
X002928Y002980D02*
X002781Y002980D01*
X002854Y002980D02*
X002854Y003200D01*
X002781Y003127D01*
X002707Y003200D02*
X002707Y003017D01*
X002670Y002980D01*
X002597Y002980D01*
X002560Y003017D01*
X002560Y003200D01*
X002416Y003060D02*
X002386Y003090D01*
X002326Y003090D01*
X002296Y003060D01*
X002296Y002940D01*
X002326Y002910D01*
X002386Y002910D01*
X002416Y002940D01*
X002416Y003060D01*
X002233Y003090D02*
X002173Y003090D01*
X002203Y003090D02*
X002203Y002910D01*
X002173Y002910D02*
X002233Y002910D01*
X002109Y002940D02*
X002079Y002910D01*
X001989Y002910D01*
X001989Y003090D01*
X002079Y003090D01*
X002109Y003060D01*
X002109Y002940D01*
X001925Y002940D02*
X001895Y002910D01*
X001805Y002910D01*
X001805Y003090D01*
X001895Y003090D01*
X001925Y003060D01*
X001925Y002940D01*
X001741Y002970D02*
X001741Y003090D01*
X001621Y003090D02*
X001621Y002970D01*
X001681Y002910D01*
X001741Y002970D01*
X001797Y004130D02*
X001870Y004130D01*
X001907Y004167D01*
X001981Y004130D02*
X002128Y004277D01*
X002128Y004313D01*
X002091Y004350D01*
X002018Y004350D01*
X001981Y004313D01*
X001907Y004313D02*
X001870Y004350D01*
X001797Y004350D01*
X001760Y004313D01*
X001760Y004167D01*
X001797Y004130D01*
X001981Y004130D02*
X002128Y004130D01*
X003310Y004167D02*
X003347Y004130D01*
X003420Y004130D01*
X003457Y004167D01*
X003531Y004130D02*
X003678Y004130D01*
X003604Y004130D02*
X003604Y004350D01*
X003531Y004277D01*
X003457Y004313D02*
X003420Y004350D01*
X003347Y004350D01*
X003310Y004313D01*
X003310Y004167D01*
X003271Y001710D02*
X003271Y001560D01*
X003301Y001530D01*
X003361Y001530D01*
X003391Y001560D01*
X003391Y001710D01*
X003455Y001710D02*
X003545Y001710D01*
X003575Y001680D01*
X003575Y001620D01*
X003545Y001590D01*
X003455Y001590D01*
X003455Y001530D02*
X003455Y001710D01*
X003639Y001680D02*
X003639Y001650D01*
X003669Y001620D01*
X003729Y001620D01*
X003759Y001590D01*
X003759Y001560D01*
X003729Y001530D01*
X003669Y001530D01*
X003639Y001560D01*
X003639Y001680D02*
X003669Y001710D01*
X003729Y001710D01*
X003759Y001680D01*
X003207Y001620D02*
X003087Y001620D01*
X003023Y001530D02*
X002902Y001530D01*
X002902Y001710D01*
X002718Y001710D02*
X002718Y001530D01*
X002838Y001530D01*
X002654Y001560D02*
X002654Y001710D01*
X002534Y001710D02*
X002534Y001560D01*
X002564Y001530D01*
X002624Y001530D01*
X002654Y001560D01*
X002470Y001620D02*
X002440Y001590D01*
X002350Y001590D01*
X002350Y001530D02*
X002350Y001710D01*
X002440Y001710D01*
X002470Y001680D01*
X002470Y001620D01*
X002420Y000888D02*
X002420Y000741D01*
X002420Y000814D02*
X002200Y000814D01*
X002273Y000741D01*
X002237Y000667D02*
X002310Y000667D01*
X002347Y000630D01*
X002347Y000520D01*
X002420Y000520D02*
X002200Y000520D01*
X002200Y000630D01*
X002237Y000667D01*
X002347Y000593D02*
X002420Y000667D01*
X003850Y000618D02*
X003850Y000508D01*
X004070Y000508D01*
X003997Y000508D02*
X003997Y000618D01*
X003960Y000655D01*
X003887Y000655D01*
X003850Y000618D01*
X003887Y000729D02*
X003850Y000766D01*
X003850Y000839D01*
X003887Y000876D01*
X003923Y000876D01*
X004070Y000729D01*
X004070Y000876D01*
X004070Y000655D02*
X003997Y000581D01*
D12*
X003900Y003808D02*
X003900Y003832D01*
X002350Y003832D02*
X002350Y003808D01*
D13*
X001900Y001120D03*
X004350Y001120D03*
D14*
X003101Y002095D02*
X003103Y002108D01*
X003108Y002120D01*
X003117Y002131D01*
X003127Y002139D01*
X003140Y002143D01*
X003153Y002144D01*
X003166Y002141D01*
X003178Y002135D01*
X003188Y002126D01*
X003195Y002115D01*
X003199Y002102D01*
X003199Y002088D01*
X003195Y002075D01*
X003188Y002064D01*
X003178Y002055D01*
X003166Y002049D01*
X003153Y002046D01*
X003140Y002047D01*
X003127Y002051D01*
X003117Y002059D01*
X003108Y002070D01*
X003103Y002082D01*
X003101Y002095D01*
D15*
X002697Y002153D02*
X002697Y002198D01*
X002697Y002403D02*
X002697Y002448D01*
X002697Y002653D02*
X002697Y002698D01*
X002697Y002904D02*
X003603Y002904D01*
X003603Y002698D02*
X003603Y002653D01*
X003603Y002448D02*
X003603Y002403D01*
X003603Y002198D02*
X003603Y002153D01*
X003603Y001936D02*
X002697Y001936D01*
D16*
X001150Y000420D02*
X000150Y000420D01*
X000150Y004420D01*
X001150Y004420D01*
X001150Y000420D01*
X002735Y000626D02*
X003365Y000626D01*
X003365Y001414D02*
X002735Y001414D01*
X002394Y002205D02*
X002394Y002835D01*
X001606Y002835D02*
X001606Y002205D01*
X003906Y002205D02*
X003906Y002835D01*
X004694Y002835D02*
X004694Y002205D01*
D17*
X005150Y000420D02*
X005150Y004420D01*
X006150Y004420D01*
X006150Y000420D01*
X005150Y000420D01*
M02*
